<?xml version="1.0" standalone="no"?><!DOCTYPE svg PUBLIC "-//W3C//DTD SVG 1.1//EN" "http://www.w3.org/Graphics/SVG/1.1/DTD/svg11.dtd"><svg t="1668765839919" class="icon" viewBox="0 0 1024 1024" version="1.1" xmlns="http://www.w3.org/2000/svg" p-id="6802" xmlns:xlink="http://www.w3.org/1999/xlink" width="64" height="64"><path d="M537.6 955.733333c-258.133333 0-469.333333-209.066667-469.333333-469.333333 0-170.666667 91.733333-328.533333 243.2-411.733333 25.6-14.933333 57.6-4.266667 72.533333 21.333333 6.4 12.8 8.533333 27.733333 4.266667 40.533333-61.866667 215.466667 66.133333 439.466667 281.6 499.2 70.4 19.2 147.2 19.2 217.6 0 27.733333-8.533333 57.6 8.533333 66.133333 36.266667 4.266667 12.8 2.133333 27.733333-4.266667 40.533333-83.2 151.466667-238.933333 243.2-411.733333 243.2zM320 142.933333C130.133333 264.533333 74.666667 514.133333 194.133333 704c17.066667 27.733333 38.4 53.333333 64 76.8 162.133333 153.6 420.266667 147.2 573.866667-14.933333 19.2-19.2 34.133333-40.533333 49.066667-61.866667-253.866667 55.466667-505.6-104.533333-561.066667-358.4-14.933333-66.133333-14.933333-136.533333 0-202.666667zM893.866667 682.666667z" p-id="6803" fill="#ffffff"></path></svg>