<?xml version="1.0" standalone="no"?><!DOCTYPE svg PUBLIC "-//W3C//DTD SVG 1.1//EN" "http://www.w3.org/Graphics/SVG/1.1/DTD/svg11.dtd"><svg t="1667178920748" class="icon" viewBox="0 0 1024 1024" version="1.1" xmlns="http://www.w3.org/2000/svg" p-id="8770" xmlns:xlink="http://www.w3.org/1999/xlink" width="200" height="200"><path d="M129.6 325.8c-2.4-107.5 82.9-196.5 190.3-198.9 107.5-2.4 196.5 82.9 198.9 190.3 2.4 107.5-82.9 196.5-190.3 198.9h-4.6c-106.2 1.1-193.2-84.1-194.3-190.3z m267.1 525.1v-13c0.3-94 48-181.5 126.9-232.6-34.4-16.6-72.1-25.3-110.3-25.4H251C113.8 578.5 1.4 688.5 0 825.8v15.9c0 55.5 112.4 55.5 251 55.5h154.9c-6.3-14.6-9.4-30.4-9.2-46.3z m345-586.1C654.4 266.5 585 338.7 586.8 426c1.8 87.3 73.9 156.6 161.2 154.9 86-1.7 154.9-72 154.9-158-0.9-88.2-73-159-161.2-158.1z m0 0C654.4 266.5 585 338.7 586.8 426c1.8 87.3 73.9 156.6 161.2 154.9 86-1.7 154.9-72 154.9-158-0.9-88.2-73-159-161.2-158.1z m-60.5 368.8c-113.9-1.2-207.2 90.2-208.4 204.2v13c0 46.1 93.3 46.1 208.4 46.1h134.5c115.1 0 208.3-1.7 208.3-46.1v-13c-1.1-113.9-94.4-205.3-208.3-204.2H681.2z" p-id="8771"></path></svg>