<?xml version="1.0" standalone="no"?><!DOCTYPE svg PUBLIC "-//W3C//DTD SVG 1.1//EN" "http://www.w3.org/Graphics/SVG/1.1/DTD/svg11.dtd"><svg t="1667178912970" class="icon" viewBox="0 0 1024 1024" version="1.1" xmlns="http://www.w3.org/2000/svg" p-id="8635" xmlns:xlink="http://www.w3.org/1999/xlink" width="200" height="200"><path d="M1024 796.9v131c0 52.9-42.9 95.8-95.8 95.8h-95.8c-52.9 0-95.8-42.9-95.8-95.8v-131c0-52.9 42.9-95.8 95.8-95.8 8.8 0 15.9-7.2 16-16V608c0-17.7-14.3-32-32-32H559.9c-8.8 0-15.9 7.2-16 16v94c0 8.1 6.6 14.7 14.7 14.7h1.3c52.9 0 95.8 42.9 95.8 95.8v131c0 52.9-42.9 95.8-95.8 95.8h-95.8c-52.9 0-95.8-42.9-95.8-95.8V796.9c0-52.9 42.9-95.8 95.8-95.8h0.7c8.1 0 14.7-6.6 14.7-14.7V592c0-8.6-6.9-15.7-15.5-16H207.9c-17.7 0-32 14.3-32 32v77.4c0 8.8 7.2 15.9 16 16 52.9 0 95.8 42.9 95.8 95.8v131c0 52.9-42.9 95.8-95.8 95.8H95.8C42.9 1023.8 0 980.9 0 928V796.9c0-52.9 42.9-95.8 95.8-95.8 8.8 0.1 16.1-7 16.2-15.8V608c0-52.9 42.9-95.8 95.8-95.8h256.4c8.8 0 15.9-7.2 16-16v-95.8c0.2-8.9-6.9-16.2-15.8-16.4h-48.5c-52.9 0-95.8-42.9-95.8-95.8V96C320.1 43.1 363 0.2 415.9 0.2h191.9c52.9 0 95.8 42.9 95.8 95.8v192.1c0 52.9-42.9 95.8-95.8 95.8h-47.9c-8.8 0-15.9 7.2-16 16v95.8c0 8.8 7.2 15.9 16 16h255.9c52.9 0 95.8 42.9 95.8 95.8v77.9c0 8.8 7.2 15.9 16 16 52.9-0.4 96.1 42.2 96.4 95.1v0.4z" p-id="8636"></path></svg>