<?xml version="1.0" standalone="no"?><!DOCTYPE svg PUBLIC "-//W3C//DTD SVG 1.1//EN" "http://www.w3.org/Graphics/SVG/1.1/DTD/svg11.dtd"><svg t="1667178926885" class="icon" viewBox="0 0 1024 1024" version="1.1" xmlns="http://www.w3.org/2000/svg" p-id="8905" xmlns:xlink="http://www.w3.org/1999/xlink" width="200" height="200"><path d="M512 87.04907c-96.05027 0-173.873517 77.823247-173.873517 173.873517v173.873516h347.747034v-173.873516c-0.204798-95.845472-78.028045-173.668719-173.873517-173.873517z m331.56799 434.581393H180.43201c-23.961368 0-43.41718 19.455812-43.41718 43.41718v328.700818c0 23.961368 19.455812 43.41718 43.41718 43.41718h662.931182c23.961368 0 43.41718-19.455812 43.41718-43.41718V565.252441c0.204798-24.166166-19.251014-43.621978-43.212382-43.621978zM511.795202 0.21471c46.079554-0.409596 91.135118 11.878285 130.865933 35.020461C681.982355 57.967751 714.750037 90.735434 737.482617 130.056653c23.142176 39.730815 35.430057 84.991177 35.020461 130.865934v173.873516h70.860114c72.088902 0 130.251539 58.367435 130.25154 130.456338v328.49602c0 71.884104-58.367435 130.251539-130.25154 130.251539H180.43201c-72.088902 0-130.251539-58.367435-130.456338-130.456337V565.252441c0-72.088902 58.367435-130.456337 130.25154-130.456338h71.064912v-173.873516c-0.409596-46.079554 11.878285-91.135118 35.020461-130.865934 22.73258-39.321219 55.500263-72.088902 94.821482-94.821482C420.864882 11.888197 466.125244-0.399684 512.204798 0.009912l-0.409596 0.204798z" p-id="8906"></path></svg>