<?xml version="1.0" standalone="no"?><!DOCTYPE svg PUBLIC "-//W3C//DTD SVG 1.1//EN" "http://www.w3.org/Graphics/SVG/1.1/DTD/svg11.dtd"><svg t="1667178931396" class="icon" viewBox="0 0 1024 1024" version="1.1" xmlns="http://www.w3.org/2000/svg" p-id="9040" xmlns:xlink="http://www.w3.org/1999/xlink" width="200" height="200"><path d="M643.6864 375.1936l-190.464 192.1024-74.1376-74.752c-14.9504-13.9264-38.5024-13.5168-53.248 0.6144-7.5776 7.168-11.6736 16.7936-11.8784 27.2384-0.2048 10.4448 3.6864 20.2752 10.8544 27.648l100.7616 101.376c7.168 7.3728 17.2032 11.6736 27.4432 11.6736h0.6144c10.24 0 19.8656-4.3008 27.0336-11.6736L698.5728 430.08l0.2048-0.2048 0.2048-0.2048 1.2288-1.2288c13.5168-15.1552 13.1072-38.7072-2.048-53.8624-15.1552-14.7456-39.5264-14.5408-54.4768 0.6144z" p-id="9041"></path><path d="M929.5872 143.9744h-0.2048l-24.1664-0.4096c-67.3792-3.072-133.3248-16.9984-196.1984-41.1648-58.9824-22.7328-115.5072-52.224-168.1408-87.04L526.336 4.7104C522.4448 1.6384 517.5296 0 512.8192 0h-0.8192c-4.9152 0.2048-9.6256 1.6384-13.9264 4.5056L483.328 14.5408c-52.6336 34.816-109.1584 64.3072-167.936 87.2448-62.8736 24.1664-128.8192 38.0928-195.9936 41.1648l-24.7808 0.4096h-0.2048c-12.9024 0-23.3472 10.4448-23.7568 23.3472v410.2144C71.0656 794.2144 357.7856 1024 512 1024c154.2144 0 440.9344-229.5808 440.9344-446.6688V167.1168c-0.2048-12.6976-10.6496-23.1424-23.3472-23.1424zM876.1344 219.136v357.7856c0 75.1616-51.6096 167.936-138.0352 248.4224-60.0064 63.6928-140.6976 106.7008-225.8944 121.0368-120.2176 0-363.9296-203.3664-363.9296-369.4592V219.136c66.7648-5.7344 132.3008-20.8896 194.9696-45.056C401.8176 151.1424 458.752 122.2656 512 88.6784c53.4528 33.9968 110.1824 62.6688 168.96 85.4016 62.6688 24.1664 128.2048 39.3216 195.1744 45.056z" p-id="9042"></path></svg>